<?xml version="1.0" encoding="UTF-8" standalone="no"?>
<svg
   xmlns:dc="http://purl.org/dc/elements/1.1/"
   xmlns:cc="http://creativecommons.org/ns#"
   xmlns:rdf="http://www.w3.org/1999/02/22-rdf-syntax-ns#"
   xmlns:svg="http://www.w3.org/2000/svg"
   xmlns="http://www.w3.org/2000/svg"
   xmlns:sodipodi="http://sodipodi.sourceforge.net/DTD/sodipodi-0.dtd"
   xmlns:inkscape="http://www.inkscape.org/namespaces/inkscape"
   inkscape:version="1.0 (4035a4fb49, 2020-05-01)"
   sodipodi:docname="android-install-en.svg"
   id="svg35"
   version="1.1"
   viewBox="0 -189.93 539.856 159.856"
   height="159.85602"
   width="539.85602">
  <metadata
     id="metadata41">
    <rdf:RDF>
      <cc:Work
         rdf:about="">
        <dc:format>image/svg+xml</dc:format>
        <dc:type
           rdf:resource="http://purl.org/dc/dcmitype/StillImage" />
        <dc:title></dc:title>
      </cc:Work>
    </rdf:RDF>
  </metadata>
  <defs
     id="defs39">
    <clipPath
       id="clipPath370"
       clipPathUnits="userSpaceOnUse">
      <rect
         y="-42.979908"
         x="5.7860494"
         height="34.58852"
         width="36.040672"
         id="rect372"
         style="fill:#ffffff;stroke-width:0.513738" />
    </clipPath>
  </defs>
  <sodipodi:namedview
     inkscape:current-layer="g33"
     inkscape:window-maximized="1"
     inkscape:window-y="0"
     inkscape:window-x="0"
     inkscape:cy="109.4373"
     inkscape:cx="267.1462"
     inkscape:zoom="1.6267793"
     showgrid="false"
     id="namedview37"
     inkscape:window-height="863"
     inkscape:window-width="1600"
     inkscape:pageshadow="2"
     inkscape:pageopacity="0"
     guidetolerance="10"
     gridtolerance="10"
     objecttolerance="10"
     borderopacity="1"
     bordercolor="#666666"
     pagecolor="#ffffff" />
  <g
     id="g33"
     transform="scale(4.00216,4.0011)">
    <path
       id="path2"
       d="m 134.032,-12.20002 a 3.83,3.83 0 0 1 -3.834,3.8299999 H 4.729 A 3.835,3.835 0 0 1 0.89,-12.20002 v -30.543 a 3.84,3.84 0 0 1 3.839,-3.835 h 125.468 a 3.834,3.834 0 0 1 3.834,3.835 z"
       fill="#ffffff" />
    <path
       id="path4"
       d="M 130.198,-7.4790201 H 4.729 A 4.73,4.73 0 0 1 0,-12.20002 v -30.542 a 4.733,4.733 0 0 1 4.729,-4.726 h 125.468 a 4.735,4.735 0 0 1 4.729,4.726 v 30.542 c 0.002,2.6039999 -2.123,4.7209999 -4.728,4.7209999 z"
       fill="#a6a6a6" />
    <path
       style="display:inline"
       id="path6"
       d="m 134.032,-12.20002 a 3.83,3.83 0 0 1 -3.834,3.8299999 H 4.729 A 3.835,3.835 0 0 1 0.89,-12.20002 v -30.543 a 3.84,3.84 0 0 1 3.839,-3.835 h 125.468 a 3.834,3.834 0 0 1 3.834,3.835 z" />
    <linearGradient
       gradientTransform="matrix(4.0022,0,0,4.0011,191.95,-397.20402)"
       y2="61.386002"
       x2="-23.235001"
       y1="97.431"
       x1="-23.235001"
       gradientUnits="userSpaceOnUse"
       id="a">
      <stop
         id="stop10"
         stop-opacity=".1"
         stop-color="#1a1a1a"
         offset="0" />
      <stop
         id="stop12"
         stop-opacity=".151"
         stop-color="#212121"
         offset=".123" />
      <stop
         id="stop14"
         stop-opacity=".227"
         stop-color="#353535"
         offset=".308" />
      <stop
         id="stop16"
         stop-opacity=".318"
         stop-color="#575757"
         offset=".532" />
      <stop
         id="stop18"
         stop-opacity=".421"
         stop-color="#858585"
         offset=".783" />
      <stop
         id="stop20"
         stop-opacity=".51"
         stop-color="#b3b3b3"
         offset="1" />
    </linearGradient>
    <path
       style="display:inline;fill:url(#a)"
       id="path23"
       d="M 130.198,-47.46802 H 62.993 l 26.323,39.9889999 h 40.882 a 4.733,4.733 0 0 0 4.729,-4.7239999 v -30.539 a 4.734,4.734 0 0 0 -4.729,-4.726 z"
       fill="url(#a)" />
    <g
       transform="matrix(1.3613722,0,0,1.3613722,-40.420255,-14.784296)"
       style="display:inline"
       id="g27"
       fill="#ffffff">
      <text
         transform="scale(0.99986755,1.0001325)"
         id="text49"
         y="28.922157"
         x="76.295357"
         style="font-size:9.99593px;line-height:1.25;font-family:sans-serif;word-spacing:0px;fill:#ffffff;stroke-width:0.249898"
         xml:space="preserve"><tspan
           style="fill:#ffffff;stroke-width:0.249898"
           y="28.922157"
           x="76.295357"
           id="tspan47"
           sodipodi:role="line" /></text>
      <text
         transform="scale(0.99986752,1.0001325)"
         id="text53"
         y="30.886179"
         x="96.436424"
         style="font-size:14.5874px;line-height:1.25;font-family:sans-serif;word-spacing:0px;stroke-width:0.364685"
         xml:space="preserve"><tspan
           style="stroke-width:0.364685"
           y="0"
           x="0"
           id="tspan51"
           sodipodi:role="line"><tspan
             id="tspan55"
             style="font-weight:bold;stroke-width:0.364685" /></tspan></text>
    </g>
    <text
       transform="scale(0.99986755,1.0001325)"
       id="text45"
       y="27.869875"
       x="53.492294"
       style="font-size:9.99593px;line-height:1.25;font-family:sans-serif;word-spacing:0px;stroke-width:0.249898"
       xml:space="preserve"><tspan
         style="stroke-width:0.249898"
         y="27.869875"
         x="53.492294"
         id="tspan43"
         sodipodi:role="line" /></text>
    <text
       transform="scale(0.99986752,1.0001325)"
       id="text62"
       y="-33.734982"
       x="74.977829"
       style="font-size:9.3169px;line-height:0.95;font-family:sans-serif;word-spacing:0px;display:inline;stroke-width:0.232924"
       xml:space="preserve"><tspan
         id="tspan64"
         style="line-height:0.95;text-align:center;text-anchor:middle;fill:#ffffff;stroke-width:0.232924"
         y="-33.734982"
         x="74.977829"
         sodipodi:role="line">Install on</tspan></text>
    <text
       transform="scale(0.99986752,1.0001325)"
       id="text343"
       y="-14.688087"
       x="53.78537"
       style="font-size:19.4905px;line-height:1.25;font-family:sans-serif;word-spacing:0px;display:inline;fill:#ffffff;stroke-width:0.487262"
       xml:space="preserve"><tspan
         style="font-style:normal;font-variant:normal;font-weight:normal;font-stretch:normal;font-family:sans-serif;-inkscape-font-specification:sans-serif;fill:#ffffff;stroke-width:0.487262"
         y="-14.688087"
         x="53.78537"
         id="tspan341"
         sodipodi:role="line">Android</tspan></text>
    <g
       transform="translate(0,0.01824798)"
       clip-path="url(#clipPath370)"
       id="g368">
      <g
         id="g319"
         transform="matrix(0.09367866,0,0,0.09370349,4.8457088,-37.580047)"
         style="display:inline">
        <g
           id="g260">
	<path
   id="path252"
   d="M 311.358,136.395 H 101.779 c -4.662,0 -8.441,3.779 -8.441,8.441 v 175.749 c 0,4.662 3.779,8.441 8.441,8.441 h 37.363 v 59.228 c 0,13.742 11.14,24.883 24.883,24.883 v 0 c 13.742,0 24.883,-11.14 24.883,-24.883 v -59.228 h 34.803 v 59.228 c 0,13.742 11.14,24.883 24.883,24.883 v 0 c 13.742,0 24.883,-11.14 24.883,-24.883 v -59.228 h 37.882 c 4.662,0 8.441,-3.779 8.441,-8.441 V 144.836 c -0.001,-4.662 -3.78,-8.441 -8.442,-8.441 z"
   style="fill:#aac148" />

	<path
   id="path254"
   d="m 57.856,136.354 v 0 c -13.742,0 -24.883,11.14 -24.883,24.883 v 101.065 c 0,13.742 11.14,24.883 24.883,24.883 v 0 c 13.742,0 24.883,-11.14 24.883,-24.883 V 161.237 C 82.738,147.495 71.598,136.354 57.856,136.354 Z"
   style="fill:#aac148" />

	<path
   id="path256"
   d="m 355.281,136.354 v 0 c -13.742,0 -24.883,11.14 -24.883,24.883 v 101.065 c 0,13.742 11.14,24.883 24.883,24.883 v 0 c 13.742,0 24.883,-11.14 24.883,-24.883 V 161.237 c 0,-13.742 -11.14,-24.883 -24.883,-24.883 z"
   style="fill:#aac148" />

	<path
   id="path258"
   d="m 103.475,124.069 h 205.692 c 5.366,0 9.368,-4.943 8.266,-10.195 -6.804,-32.428 -27.45,-59.756 -55.465,-75.543 L 279.552,6.604 c 1.19,-2.148 0.414,-4.855 -1.734,-6.045 -2.153,-1.193 -4.856,-0.414 -6.046,1.734 l -17.717,31.966 c -14.511,-6.734 -30.683,-10.495 -47.734,-10.495 -17.052,0 -33.224,3.761 -47.735,10.495 L 140.869,2.292 c -1.191,-2.149 -3.898,-2.924 -6.045,-1.734 -2.148,1.19 -2.924,3.897 -1.734,6.045 l 17.584,31.727 c -28.015,15.788 -48.661,43.115 -55.465,75.544 -1.103,5.252 2.899,10.195 8.266,10.195 z M 267.697,76.786 c 0,5.282 -4.282,9.565 -9.565,9.565 -5.282,0 -9.565,-4.282 -9.565,-9.565 0,-5.282 4.282,-9.565 9.565,-9.565 5.283,0 9.565,4.283 9.565,9.565 z M 154.508,67.221 c 5.282,0 9.565,4.282 9.565,9.565 0,5.282 -4.282,9.565 -9.565,9.565 -5.282,0 -9.565,-4.282 -9.565,-9.565 0,-5.282 4.282,-9.565 9.565,-9.565 z"
   style="fill:#aac148" />

</g>
        <g
           id="g262">
</g>
        <g
           id="g264">
</g>
        <g
           id="g266">
</g>
        <g
           id="g268">
</g>
        <g
           id="g270">
</g>
        <g
           id="g272">
</g>
        <g
           id="g274">
</g>
        <g
           id="g276">
</g>
        <g
           id="g278">
</g>
        <g
           id="g280">
</g>
        <g
           id="g282">
</g>
        <g
           id="g284">
</g>
        <g
           id="g286">
</g>
        <g
           id="g288">
</g>
        <g
           id="g290">
</g>
      </g>
    </g>
  </g>
</svg>
